<?xml version="1.0" encoding="UTF-8" standalone="no"?>
<!DOCTYPE svg PUBLIC "-//W3C//DTD SVG 1.1//EN" "http://www.w3.org/Graphics/SVG/1.1/DTD/svg11.dtd">
<svg width="100%" height="100%" viewBox="0 0 16 16" version="1.1" xmlns="http://www.w3.org/2000/svg" xmlns:xlink="http://www.w3.org/1999/xlink" xml:space="preserve" xmlns:serif="http://www.serif.com/" style="fill-rule:evenodd;clip-rule:evenodd;stroke-linecap:round;stroke-linejoin:round;stroke-miterlimit:1.5;">
    <g transform="matrix(1.61415,-1.3242e-16,-1.28725e-16,1,-4.91324,-0.26303)">
        <path d="M1,8L3.67,8" style="fill:none;stroke:rgb(254,254,254);stroke-width:0.07px;"/>
    </g>
    <g transform="matrix(1.61415,-1.3242e-16,-1.28725e-16,1,-4.91324,-0.26303)">
        <path d="M12.33,8L15,8" style="fill:none;stroke:rgb(254,254,254);stroke-width:0.07px;"/>
    </g>
    <g transform="matrix(1.00929,-0.321051,0.133764,1.25194,-2.07111,-1.2828)">
        <path d="M5.85,12.485L5.156,14.006" style="fill:none;stroke:rgb(254,254,254);stroke-width:1.44px;"/>
    </g>
    <g transform="matrix(-1.00929,-0.321051,-0.133764,1.25194,18.0421,-1.2828)">
        <path d="M5.85,12.485L5.156,14.006" style="fill:none;stroke:rgb(254,254,254);stroke-width:1.44px;"/>
    </g>
    <g transform="matrix(-1.05627,0.0777389,0.341892,1.21176,15.647,-4.66099)">
        <path d="M5.85,12.485L5.156,14.006" style="fill:none;stroke:rgb(254,254,254);stroke-width:1.44px;"/>
    </g>
    <g transform="matrix(1.05627,0.0777389,-0.341892,1.21176,0.353037,-4.66099)">
        <path d="M5.85,12.485L5.156,14.006" style="fill:none;stroke:rgb(254,254,254);stroke-width:1.44px;"/>
    </g>
    <g transform="matrix(0.968142,0,0,0.673113,0.031858,2.61509)">
        <path d="M15.45,7.609C15.457,7.739 15.461,7.869 15.461,8C15.461,11.863 12.221,15 8.23,15C4.24,15 1,11.863 1,8C1,7.869 1.004,7.739 1.011,7.609" style="fill:none;stroke:rgb(254,254,254);stroke-width:1.8px;"/>
    </g>
</svg>
