<?xml version="1.0" encoding="UTF-8" standalone="no"?>
<!DOCTYPE svg PUBLIC "-//W3C//DTD SVG 1.1//EN" "http://www.w3.org/Graphics/SVG/1.1/DTD/svg11.dtd">
<svg width="100%" height="100%" viewBox="0 0 16 16" version="1.1" xmlns="http://www.w3.org/2000/svg" xmlns:xlink="http://www.w3.org/1999/xlink" xml:space="preserve" xmlns:serif="http://www.serif.com/" style="fill-rule:evenodd;clip-rule:evenodd;stroke-linecap:round;stroke-linejoin:round;stroke-miterlimit:1.5;">
    <path d="M1,8C2.346,5.719 4.453,5.025 5.855,4.679C6.324,4.563 6.575,4.815 6.895,5.276C7.175,5.677 7.497,6.144 8,6.144" style="fill:none;stroke:rgb(254,254,254);stroke-width:1.5px;"/>
    <g transform="matrix(-1,0,0,1,16,8.88178e-16)">
        <path d="M1,8C2.346,5.719 4.453,5.025 5.855,4.679C6.324,4.563 6.575,4.815 6.895,5.276C7.175,5.677 7.497,6.144 8,6.144" style="fill:none;stroke:rgb(254,254,254);stroke-width:1.5px;"/>
    </g>
    <path d="M1,8C1.609,10.233 2.905,11.662 4.931,12.235C6.245,12.592 7.196,12.69 8,12.69" style="fill:none;stroke:rgb(254,254,254);stroke-width:1.5px;"/>
    <g transform="matrix(-1,0,0,1,16,0)">
        <path d="M1,8C1.609,10.233 2.905,11.662 4.931,12.235C6.245,12.592 7.128,12.665 8,12.69" style="fill:none;stroke:rgb(254,254,254);stroke-width:1.5px;"/>
    </g>
    <g transform="matrix(-1,0,0,1,16,0)">
        <path d="M1,8C2.853,7.742 4.781,7.628 5.645,8.182C6.418,8.677 7.173,9.187 8,9.187" style="fill:none;stroke:rgb(254,254,254);stroke-width:1px;"/>
    </g>
    <path d="M1,8C2.853,7.742 4.781,7.628 5.645,8.182C6.418,8.677 7.173,9.187 8,9.187" style="fill:none;stroke:rgb(254,254,254);stroke-width:1px;"/>
</svg>
