<?xml version="1.0" encoding="UTF-8" standalone="no"?>
<!DOCTYPE svg PUBLIC "-//W3C//DTD SVG 1.1//EN" "http://www.w3.org/Graphics/SVG/1.1/DTD/svg11.dtd">
<svg width="100%" height="100%" viewBox="0 0 16 16" version="1.1" xmlns="http://www.w3.org/2000/svg" xmlns:xlink="http://www.w3.org/1999/xlink" xml:space="preserve" xmlns:serif="http://www.serif.com/" style="fill-rule:evenodd;clip-rule:evenodd;stroke-linecap:round;stroke-linejoin:round;stroke-miterlimit:1.5;">
    <path d="M1,8C2.346,5.719 4.453,5.025 5.855,4.679C6.324,4.563 6.824,4.656 8,4.668" style="fill:none;stroke:black;stroke-width:1.5px;"/>
    <g transform="matrix(-1,0,0,1,16,-1.77636e-15)">
        <path d="M1,8C2.346,5.719 4.453,5.025 5.855,4.679C6.324,4.563 6.824,4.656 8,4.668" style="fill:none;stroke:black;stroke-width:1.5px;"/>
    </g>
    <path d="M1,8C1.609,10.233 2.905,11.662 4.931,12.235C6.245,12.592 7.196,12.69 8,12.69" style="fill:none;stroke:black;stroke-width:1.5px;"/>
    <g transform="matrix(-1,0,0,1,16,0)">
        <path d="M1,8C1.609,10.233 2.905,11.662 4.931,12.235C6.245,12.592 7.128,12.665 8,12.69" style="fill:none;stroke:black;stroke-width:1.5px;"/>
    </g>
    <g transform="matrix(1,0,0,1.1508,0,-1.20637)">
        <path d="M1,8C5.354,10.987 10.027,10.932 15,8" style="fill:none;stroke:black;stroke-width:0.93px;"/>
    </g>
    <g transform="matrix(1,0,0,1.40257,0,-3.22055)">
        <path d="M1,8C5.563,6.774 10.231,6.789 15,8" style="fill:none;stroke:black;stroke-width:0.82px;"/>
    </g>
</svg>
